<svg id="Layer_2" data-name="Layer 2" xmlns="http://www.w3.org/2000/svg" viewBox="0 0 423.57 272.87">
  <defs fill="#000000">
    <style>
      .cls-1 {
        fill: #ffffff;
      }

      .cls-2 {
        fill: #ffffff;
      }
    </style>
  </defs>
  <g id="Layer_1-2" data-name="Layer 1">
    <g>
      <g>
        <path class="cls-1" d="m38.34,272.87h-12.78v-22.67h-12.78v22.67H0v-41.56c0-4.91,4.43-8.84,9.97-8.84h18.4c5.54,0,9.97,3.93,9.97,8.84v41.56Zm-12.78-27.73v-13.83c0-2.04-1.96-3.78-4.26-3.78h-4.26c-2.3,0-4.26,1.74-4.26,3.78v13.83h12.78Z" fill="#000000"/>
        <path class="cls-1" d="m68.16,272.87h-12.78v-55.39h12.78v55.39Z" fill="#000000"/>
        <path class="cls-1" d="m119.27,272.87h-25.56c-5.54,0-9.97-3.93-9.97-8.84v-3.78c0-4.84,4.43-8.77,9.97-8.77h12.78v-7.56c0-2.12-1.96-3.78-4.26-3.78h-1.45c-2.3,0-4.26,1.66-4.26,3.78v1.21h-12.78v-1.21c0-4.91,4.43-8.84,9.97-8.84h15.59c5.54,0,9.97,3.93,9.97,8.84v28.94Zm-12.78-5.06v-11.33h-5.71c-2.3,0-4.26,1.74-4.26,3.78v3.78c0,2.12,1.96,3.78,4.26,3.78h5.71Z" fill="#000000"/>
        <path class="cls-1" d="m166.13,264.03c0,4.91-4.43,8.84-9.97,8.84h-21.3v-5.06h15.68c2.3,0,4.26-1.66,4.26-3.78v-1.21c0-2.12-1.96-3.78-4.26-3.78h-5.71c-5.54,0-9.97-4-9.97-8.84v-6.27c0-4.38,4.43-8.84,9.97-8.84h21.3v5.06h-15.59c-2.39,0-4.26,1.66-4.26,3.78v1.21c0,2.12,1.87,3.78,4.26,3.78h5.62c5.54,0,9.97,3.93,9.97,8.77v6.35Z" fill="#000000"/>
        <path class="cls-1" d="m215.8,272.87h-24.11c-5.54,0-9.97-3.93-9.97-8.84v-20.1c0-4.91,4.43-8.84,9.97-8.84h14.14c5.54,0,9.97,3.93,9.97,8.84v6.27h-21.3v13.83c0,2.12,1.96,3.78,4.26,3.78h17.04v5.06Zm-12.78-27.73v-1.21c0-2.12-1.96-3.78-4.26-3.78s-4.26,1.66-4.26,3.78v1.21h8.52Z" fill="#000000"/>
        <path class="cls-1" d="m281.06,272.87h-12.78v-28.94c0-2.12-1.87-3.78-4.26-3.78h-1.36v32.72h-12.78v-32.72h-5.71v32.72h-12.78v-37.78h39.78c5.45,0,9.88,3.93,9.88,8.84v28.94Z" fill="#000000"/>
        <path class="cls-1" d="m332.18,272.87h-25.56c-5.54,0-9.97-3.93-9.97-8.84v-3.78c0-4.84,4.43-8.77,9.97-8.77h12.78v-7.56c0-2.12-1.96-3.78-4.26-3.78h-1.45c-2.3,0-4.26,1.66-4.26,3.78v1.21h-12.78v-1.21c0-4.91,4.43-8.84,9.97-8.84h15.59c5.54,0,9.97,3.93,9.97,8.84v28.94Zm-12.78-5.06v-11.33h-5.71c-2.3,0-4.26,1.74-4.26,3.78v3.78c0,2.12,1.96,3.78,4.26,3.78h5.71Z" fill="#000000"/>
        <path class="cls-1" d="m386.11,272.87h-12.78v-28.94c0-2.12-1.87-3.78-4.26-3.78h-7.07v32.72h-12.78v-55.39h12.78v17.61h14.23c5.45,0,9.88,3.93,9.88,8.84v28.94Z" fill="#000000"/>
      </g>
      <g>
        <path class="cls-2" d="m208.2,196.1c0,4.83-4.55,8.69-10.24,8.69h-18.9c-5.69,0-10.24-3.86-10.24-8.69v-40.84h13.12v40.84c0,2.08,2.01,3.71,4.37,3.71h4.37c2.36,0,4.37-1.63,4.37-3.71v-40.84h13.12v40.84Z" fill="#000000"/>
        <path class="cls-2" d="m266.56,204.79h-14l-11.64-22.28h-2.1v22.28h-13.12v-49.53h29.13c5.69,0,10.24,3.86,10.24,8.69v9.88c0,4.83-4.55,8.69-10.24,8.69l11.72,22.28Zm-14.61-40.84c0-2-2.01-3.71-4.37-3.71h-8.75v17.3h8.75c2.36,0,4.37-1.63,4.37-3.71v-9.88Z" fill="#000000"/>
        <path class="cls-2" d="m320.54,204.79h-14l-11.64-22.28h-2.1v22.28h-13.12v-49.53h29.13c5.69,0,10.24,3.86,10.24,8.69v9.88c0,4.83-4.55,8.69-10.24,8.69l11.72,22.28Zm-14.61-40.84c0-2-2.01-3.71-4.37-3.71h-8.75v17.3h8.75c2.36,0,4.37-1.63,4.37-3.71v-9.88Z" fill="#000000"/>
        <path class="cls-2" d="m423.57,160.23h-14.52v44.55h-13.12v-44.55h-14.61v-4.98h42.26v4.98Z" fill="#000000"/>
      </g>
      <g>
        <path class="cls-2" d="m15.3,187.27c.27-2.47,1.31-3.76,3.12-3.9h15.32v13.8h3.41v7.28h-5.53c-.45.04-.89-.03-1.32-.2-.43-.17-.82-.45-1.17-.83-.35-.38-.66-.86-.91-1.44-.25-.58-.42-1.26-.5-2.04v-9.43h-6.33v13.94h-2.95c-.5,0-.95-.12-1.34-.35s-.73-.55-1.01-.95c-.28-.4-.49-.87-.63-1.43-.14-.55-.2-1.15-.18-1.79,0-2.11,0-4.23.01-6.33,0-2.11.01-4.22.01-6.33Zm5.94-14.06c.43,0,.84.1,1.22.29.38.19.71.46.99.8.28.34.5.74.66,1.21.16.47.24.96.24,1.48s-.08.99-.24,1.44c-.16.46-.38.86-.66,1.19-.28.34-.61.61-.99.8-.38.19-.79.29-1.22.29s-.84-.1-1.22-.29c-.38-.19-.71-.46-.99-.8-.28-.34-.5-.74-.66-1.19-.16-.46-.24-.94-.24-1.44s.08-1.02.24-1.48c.16-.47.38-.87.66-1.21.28-.34.61-.61.99-.8.38-.19.79-.29,1.22-.29Zm7.01,0c.44,0,.84.1,1.22.29.38.19.71.46.99.8.28.34.5.74.66,1.21.16.47.24.96.24,1.48s-.08.99-.24,1.44c-.16.46-.38.86-.66,1.19-.28.34-.61.61-.99.8-.38.19-.79.29-1.22.29s-.87-.1-1.24-.29c-.38-.19-.71-.46-.99-.8-.28-.34-.5-.74-.65-1.19-.15-.46-.23-.94-.23-1.44s.08-1.02.23-1.48c.15-.47.37-.87.65-1.21.28-.34.61-.61.99-.8.38-.19.79-.29,1.24-.29Z" fill="#000000"/>
        <path class="cls-2" d="m40.21,187.27c.23-2.45,1.25-3.75,3.07-3.9h15.32v13.8h3.43v7.28h-25.08v-7.28h3.21l.05-10.01v.12Zm12.35,9.9v-6.67h-6.33v6.67h6.33Z" fill="#000000"/>
        <path class="cls-2" d="m65.26,197.17v-9.87c.26-2.46,1.29-3.77,3.09-3.93h2.95v5.88c.73-1.3,1.41-2.34,2.05-3.12.64-.78,1.28-1.37,1.9-1.78.62-.41,1.24-.67,1.86-.8.62-.13,1.27-.19,1.95-.19h15.95l.02,14.93c.11,1.92-.19,3.39-.92,4.39-.73,1.01-1.84,1.59-3.33,1.75h-29.02v-7.28h3.5Zm23.72,0v-6.67h-10c-.68-.02-1.38.04-2.1.18-.73.14-1.44.44-2.15.9-.71.47-1.4,1.15-2.07,2.04-.67.89-1.28,2.08-1.85,3.55h18.17Z" fill="#000000"/>
        <path class="cls-2" d="m98.19,173.62c.26-2.46,1.28-3.77,3.07-3.9h2.97v27.45h3.67v7.28h-9.66c0-2.66,0-5.26-.01-7.82,0-2.55-.01-5.09-.01-7.61s0-5.08-.01-7.63c0-2.54-.01-5.13-.01-7.77Z" fill="#000000"/>
        <path class="cls-2" d="m110.42,187.3c.27-2.48,1.3-3.79,3.09-3.93h15.32v2.24c-.05.82-.2,1.53-.46,2.14s-.59,1.12-1,1.51c-.41.4-.89.7-1.45.9-.56.2-1.16.32-1.8.33h.07l-7.73.03v6.64h14.59v7.28h-23.56v-7.28h2.92v-9.87Z" fill="#000000"/>
        <path class="cls-2" d="m134.58,197.17v-23.55c.13-1.22.44-2.16.93-2.82.49-.66,1.2-1.02,2.11-1.08h2.97v26.4c.02,1.32-.09,2.5-.33,3.55-.23,1.05-.57,1.93-1,2.65-.44.72-.95,1.26-1.56,1.63-.6.37-1.27.53-1.99.5h-4.95v-7.28h3.82Z" fill="#000000"/>
        <path class="cls-2" d="m144.29,173.62c.16-1.22.48-2.16.97-2.82.48-.66,1.18-1.02,2.1-1.08h2.97v30.89c-.24,2.43-1.26,3.71-3.07,3.84h-2.97v-30.83Z" fill="#000000"/>
      </g>
      <path class="cls-2" d="m111.66,91.54c0,14.54-4.92,27.01-14.76,37.42-9.85,10.41-21.64,15.62-35.38,15.62H17.21V41.45l94.45.29v49.8ZM92.99,14.73l-14.21,15.03-13.93-15.03-13.93,15.03-14.21-15.03L50.93,0l13.93,14.73L78.79,0l14.21,14.73Zm-1.11,76.81v-29.17h-54.88v61.29h24.52c8.17,0,15.27-3.14,21.31-9.43,6.03-6.28,9.06-13.85,9.06-22.69Z" fill="#000000"/>
      <path class="cls-2" d="m133.01,44.35v79.86c0,8.84-2.97,16.4-8.91,22.69-2.56,2.71-5.34,4.82-8.35,6.37v22.5c7.98-2.26,15.17-6.66,21.58-13.25,9.75-10.02,14.9-22.1,15.46-36.24V23.14l-19.78,21.22Z" fill="#000000"/>
      <path class="cls-1" d="m259.14,84.43c0,14.34-4.83,26.77-14.49,37.28-9.66,10.51-21.27,15.76-34.83,15.76h-47.29v-20.92h46.74c8.36,0,15.46-3.14,21.31-9.43,5.85-6.28,8.77-13.85,8.77-22.69v-29.17h-54.6v19.45l-19.78,21.22v-61.58h94.17v50.09Z" fill="#000000"/>
      <path class="cls-2" d="m372.55,206.99h-12.3v-23.59h-12.3v23.59h-12.3v-43.25c0-5.11,4.27-9.2,9.6-9.2h17.72c5.33,0,9.6,4.09,9.6,9.2v43.25Zm-12.3-28.86v-14.39c0-2.12-1.89-3.93-4.1-3.93h-4.1c-2.22,0-4.1,1.81-4.1,3.93v14.39h12.3Z" fill="#000000"/>
    </g>
  </g>
</svg>